#!OML:ASF H:\Not Pregnant\Project 1\Capture day 1\Session 1\non-pregnant.ASF
:FULLY-SPECIFIED
:DEGREES
360
root -5.69411 16.1545 35.2288 139.415 -84.3531 -125.894
lowerback -7.15811 1.47413 2.07117
upperback -8.02993 1.56087 0.328583
thorax -4.27373 0.542597 -0.755155
lowerneck 16.5326 -7.99544 -30.4955
upperneck -10.1782 -17.3227 45.759
head 2.46676 -11.7626 25.1407
rclavicle -2.41523e-014 -8.74653e-015
rhumerus -40.0686 -2.66859 -82.1804
rradius 33.0386
rwrist -1.77903
rhand -11.5323 -10.7814
rfingers 7.12502
rthumb 14.5077 -40.2542
lclavicle -2.41523e-014 -8.74653e-015
lhumerus -49.182 -7.57927 88.9635
lradius 35.4173
lwrist 47.7008
lhand -23.5258 -10.2818
lfingers 7.12502
lthumb 2.93533 19.6778
rfemur -19.143 -8.4474 25.3505
rtibia 20.4903
rfoot -18.1771 15.2352
rtoes -12.6266
lfemur -21.9501 1.84727 -16.7666
ltibia 24.5589
lfoot -16.9388 -2.58189
ltoes -16.9278
361
root -5.69854 16.1562 35.2192 140.39 -84.2983 -126.849
lowerback -7.27406 1.51091 2.14598
upperback -8.0094 1.6025 0.32567
thorax -4.18444 0.56033 -0.795825
lowerneck 16.4943 -7.95445 -30.5107
upperneck -10.0593 -17.2714 45.7123
head 2.4725 -11.7237 25.1199
rclavicle -2.98177e-015 -1.55052e-014
rhumerus -39.8196 -2.98943 -82.1309
rradius 33.1351
rwrist -1.76948
rhand -11.8766 -10.8597
rfingers 7.12502
rthumb 14.1759 -40.3561
lclavicle -2.98177e-015 -1.55052e-014
lhumerus -49.0802 -7.41681 88.987
lradius 35.2931
lwrist 47.5178
lhand -23.2242 -10.383
lfingers 7.12502
lthumb 3.22659 19.5723
rfemur -19.1881 -8.91185 25.4326
rtibia 20.4699
rfoot -18.1857 15.9182
rtoes -12.0424
lfemur -21.9014 1.99727 -16.763
ltibia 24.481
lfoot -16.9309 -2.64694
ltoes -16.8517
362
root -5.70312 16.1579 35.2104 141.265 -84.2476 -127.701
lowerback -7.39473 1.54542 2.22009
upperback -7.99191 1.64066 0.329217
thorax -4.09605 0.576456 -0.829305
lowerneck 16.4644 -7.91456 -30.536
upperneck -9.93622 -17.2261 45.6593
head 2.48058 -11.6873 25.0957
rclavicle 9.54166e-015 0
rhumerus -39.5856 -3.27831 -82.0971
rradius 33.2339
rwrist -1.80995
rhand -12.2466 -10.9704
rfingers 7.12502
rthumb 13.8193 -40.4913
lclavicle 9.54166e-015 0
lhumerus -48.9813 -7.24752 89.0227
lradius 35.197
lwrist 47.4173
lhand -22.8342 -10.5055
lfingers 7.12502
lthumb 3.60318 19.4438
rfemur -19.2416 -9.3996 25.5168
rtibia 20.4554
rfoot -18.1866 16.6214
rtoes -11.4308
lfemur -21.8574 2.14198 -16.7612
ltibia 24.4008
lfoot -16.9216 -2.71474
ltoes -16.7784
363
root -5.7079 16.1592 35.201 142.111 -84.1922 -128.525
lowerback -7.52063 1.57723 2.27644
upperback -7.9735 1.67573 0.343947
thorax -4.00466 0.592312 -0.841145
lowerneck 16.4351 -7.87657 -30.57
upperneck -9.805 -17.1863 45.5983
head 2.49289 -11.6522 25.0649
rclavicle -2.38542e-015 -3.57812e-015
rhumerus -39.3565 -3.56551 -82.0643
rradius 33.3187
rwrist -1.83015
rhand -12.557 -11.0535
rfingers 7.12502
rthumb 13.5202 -40.5945
lclavicle -2.38542e-015 -3.57812e-015
lhumerus -48.902 -7.12492 89.1322
lradius 35.1482
lwrist 47.276
lhand -22.5744 -10.5816
lfingers 7.12502
lthumb 3.8541 19.3632
rfemur -19.3044 -9.93754 25.6139
rtibia 20.4538
rfoot -18.1857 17.3871
rtoes -10.7519
lfemur -21.8112 2.31148 -16.7576
ltibia 24.3183
lfoot -16.9174 -2.80229
ltoes -16.7218
364
root -5.71294 16.1603 35.1918 143.093 -84.1534 -129.489
lowerback -7.64366 1.60723 2.31076
upperback -7.95755 1.70898 0.347554
thorax -3.91777 0.607986 -0.852232
lowerneck 16.4065 -7.84213 -30.6001
upperneck -9.66383 -17.1535 45.5329
head 2.50961 -11.6202 25.0263
rclavicle 1.09332e-015 2.78299e-015
rhumerus -39.1419 -3.84985 -82.0441
rradius 33.3949
rwrist -1.85959
rhand -12.8145 -11.1288
rfingers 7.12502
rthumb 13.272 -40.6862
lclavicle 1.09332e-015 2.78299e-015
lhumerus -48.8497 -7.07848 89.3154
lradius 35.1283
lwrist 46.9871
lhand -22.4711 -10.6244
lfingers 7.12502
lthumb 3.95389 19.3186
rfemur -19.3685 -10.4682 25.6832
rtibia 20.4636
rfoot -18.186 18.1353
rtoes -10.0889
lfemur -21.7615 2.50318 -16.7851
ltibia 24.235
lfoot -16.9208 -2.91454
ltoes -16.6652
365
root -5.71836 16.1611 35.1807 144.296 -84.1045 -130.685
lowerback -7.76268 1.64411 2.30854
upperback -7.93706 1.75329 0.345318
thorax -3.82876 0.6311 -0.848395
lowerneck 16.3772 -7.81343 -30.6173
upperneck -9.51992 -17.1263 45.4648
head 2.52761 -11.5909 24.978
rclavicle 4.87022e-015 -1.27222e-014
rhumerus -38.938 -4.11774 -82.0451
rradius 33.4636
rwrist -1.90975
rhand -13.0348 -11.1967
rfingers 7.12502
rthumb 13.0596 -40.7679
lclavicle 4.87022e-015 -1.27222e-014
lhumerus -48.813 -7.11075 89.561
lradius 35.1402
lwrist 46.6371
lhand -22.4886 -10.6556
lfingers 7.12502
lthumb 3.93693 19.2878
rfemur -19.4206 -10.956 25.7392
rtibia 20.4853
rfoot -18.1895 18.8555
rtoes -9.44116
lfemur -21.693 2.7549 -16.826
ltibia 24.1521
lfoot -16.9392 -3.06666
ltoes -16.591
366
root -5.72382 16.1617 35.1703 145.353 -84.0594 -131.736
lowerback -7.88053 1.69005 2.34147
upperback -7.91571 1.80777 0.317132
thorax -3.73747 0.657052 -0.890421
lowerneck 16.351 -7.79555 -30.6003
upperneck -9.38119 -17.1092 45.403
head 2.54506 -11.5689 24.92
rclavicle 2.76808e-014 2.06736e-014
rhumerus -38.7464 -4.38072 -82.081
rradius 33.5267
rwrist -1.99917
rhand -13.2221 -11.262
rfingers 7.12502
rthumb 12.8791 -40.8446
lclavicle 2.76808e-014 2.06736e-014
lhumerus -48.7655 -7.18685 89.7892
lradius 35.1565
lwrist 46.3188
lhand -22.3982 -10.7355
lfingers 7.12502
lthumb 4.02424 19.2063
rfemur -19.4718 -11.4337 25.7965
rtibia 20.5072
rfoot -18.1918 19.5475
rtoes -8.83303
lfemur -21.6315 3.00809 -16.8657
ltibia 24.0758
lfoot -16.9618 -3.22933
ltoes -16.5283
367
root -5.72898 16.1622 35.1609 146.392 -84.0187 -132.763
lowerback -7.99569 1.73254 2.38977
upperback -7.89861 1.85661 0.283143
thorax -3.6517 0.67912 -0.947196
lowerneck 16.318 -7.77547 -30.593
upperneck -9.22906 -17.0939 45.341
head 2.56969 -11.5472 24.8648
rclavicle 9.59136e-015 -4.77083e-015
rhumerus -38.562 -4.61771 -82.1334
rradius 33.5729
rwrist -2.08769
rhand -13.4193 -11.3312
rfingers 7.12502
rthumb 12.689 -40.9257
lclavicle 9.59136e-015 -4.77083e-015
lhumerus -48.7062 -7.21393 89.9752
lradius 35.1762
lwrist 46.1135
lhand -22.1149 -10.8822
lfingers 7.12502
lthumb 4.29786 19.0542
rfemur -19.5267 -11.8753 25.8437
rtibia 20.5268
rfoot -18.1913 20.1866
rtoes -8.28711
lfemur -21.5821 3.25126 -16.9124
ltibia 24.0077
lfoot -16.984 -3.388
ltoes -16.4706
368
root -5.73387 16.1626 35.1513 147.127 -83.959 -133.491
lowerback -8.09889 1.77671 2.4782
upperback -7.88169 1.90618 0.253751
thorax -3.57168 0.699825 -1.0217
lowerneck 16.2796 -7.75538 -30.5885
upperneck -9.06947 -17.0804 45.2791
head 2.59869 -11.5261 24.8097
rclavicle 1.3418e-015 -8.74653e-015
rhumerus -38.3849 -4.83063 -82.2008
rradius 33.6065
rwrist -2.18852
rhand -13.6139 -11.4114
rfingers 7.12502
rthumb 12.5014 -41.0174
lclavicle 1.3418e-015 -8.74653e-015
lhumerus -48.643 -7.24006 90.1563
lradius 35.2364
lwrist 46.0609
lhand -21.777 -11.0083
lfingers 7.12502
lthumb 4.62413 18.9213
rfemur -19.5617 -12.2178 25.9131
rtibia 20.5354
rfoot -18.1845 20.7094
rtoes -7.83617
lfemur -21.5357 3.49128 -16.9203
ltibia 23.9524
lfoot -17.0092 -3.5446
ltoes -16.4125
369
root -5.73845 16.1629 35.1424 147.887 -83.9043 -134.243
lowerback -8.19596 1.82014 2.55636
upperback -7.86834 1.95527 0.228612
thorax -3.49914 0.720781 -1.08613
lowerneck 16.2395 -7.73518 -30.5966
upperneck -8.90592 -17.0691 45.213
head 2.63117 -11.5051 24.7543
rclavicle 2.55438e-014 -5.56597e-015
rhumerus -38.2172 -5.00457 -82.2696
rradius 33.6232
rwrist -2.26309
rhand -13.8607 -11.4873
rfingers 7.12502
rthumb 12.2634 -41.1077
lclavicle 2.55438e-014 -5.56597e-015
lhumerus -48.5898 -7.28149 90.386
lradius 35.3519
lwrist 46.1436
lhand -21.5241 -11.0947
lfingers 7.12502
lthumb 4.86827 18.8294
rfemur -19.5924 -12.5266 25.9682
rtibia 20.535
rfoot -18.1671 21.1921
rtoes -7.40845
lfemur -21.4971 3.71949 -16.9366
ltibia 23.9074
lfoot -17.0375 -3.69045
ltoes -16.3638
370
root -5.74276 16.1631 35.133 148.557 -83.8398 -134.908
lowerback -8.28484 1.85615 2.61641
upperback -7.8572 1.99587 0.230387
thorax -3.43516 0.738882 -1.11313
lowerneck 16.1894 -7.70888 -30.6375
upperneck -8.72926 -17.0543 45.1367
head 2.67007 -11.479 24.7015
rclavicle -8.3738e-015 3.18055e-015
rhumerus -38.0599 -5.05063 -82.366
rradius 33.6408
rwrist -2.40437
rhand -14.0913 -11.5849
rfingers 7.12502
rthumb 12.0411 -41.2185
lclavicle -8.3738e-015 3.18055e-015
lhumerus -48.558 -7.34236 90.6991
lradius 35.5305
lwrist 46.2646
lhand -21.4802 -11.0835
lfingers 7.12502
lthumb 4.91071 18.8396
rfemur -19.6101 -12.756 26.0263
rtibia 20.5284
rfoot -18.1473 21.5859
rtoes -7.05091
lfemur -21.4589 3.94449 -16.9365
ltibia 23.8703
lfoot -17.0668 -3.83666
ltoes -16.2836
371
root -5.74673 16.1634 35.123 149.184 -83.761 -135.531
lowerback -8.36755 1.88933 2.65562
upperback -7.84878 2.03405 0.25327
thorax -3.37888 0.757105 -1.10687
lowerneck 16.1336 -7.67966 -30.6939
upperneck -8.5464 -17.0356 45.0505
head 2.71009 -11.4485 24.6458
rclavicle -1.13556e-014 1.19271e-014
rhumerus -37.9111 -5.03762 -82.4727
rradius 33.6408
rwrist -2.52966
rhand -14.323 -11.6758
rfingers 7.12502
rthumb 11.8177 -41.3223
lclavicle -1.13556e-014 1.19271e-014
lhumerus -48.5459 -7.43914 91.0901
lradius 35.7677
lwrist 46.4142
lhand -21.6389 -10.9733
lfingers 7.12502
lthumb 4.75743 18.9533
rfemur -19.6257 -12.8995 26.0871
rtibia 20.5297
rfoot -18.1225 21.8948
rtoes -6.72576
lfemur -21.4185 4.16896 -16.9201
ltibia 23.8309
lfoot -17.0924 -3.97504
ltoes -16.2073
372
root -5.75028 16.1636 35.1137 149.91 -83.6934 -136.25
lowerback -8.44668 1.9181 2.66983
upperback -7.8438 2.06766 0.280348
thorax -3.32932 0.774104 -1.08262
lowerneck 16.0762 -7.64947 -30.76
upperneck -8.36117 -17.0161 44.9585
head 2.75094 -11.4163 24.5885
rclavicle -5.889e-015 -6.36111e-015
rhumerus -37.7725 -5.00534 -82.578
rradius 33.624
rwrist -2.61589
rhand -14.4798 -11.7431
rfingers 7.12502
rthumb 11.6664 -41.3983
lclavicle -5.889e-015 -6.36111e-015
lhumerus -48.541 -7.55548 91.527
lradius 36.0069
lwrist 46.4799
lhand -21.8773 -10.8547
lfingers 7.12502
lthumb 4.52722 19.0769
rfemur -19.6449 -13.003 26.1216
rtibia 20.5346
rfoot -18.0976 22.1505
rtoes -6.43811
lfemur -21.3831 4.37636 -16.9232
ltibia 23.7926
lfoot -17.1141 -4.10332
ltoes -16.1283
373
root -5.75321 16.164 35.1047 150.816 -83.6302 -137.146
lowerback -8.52211 1.94703 2.65962
upperback -7.84241 2.10273 0.302156
thorax -3.28614 0.792623 -1.05018
lowerneck 16.0217 -7.61782 -30.8237
upperneck -8.17852 -16.9931 44.8649
head 2.78824 -11.3827 24.531
rclavicle -2.15433e-014 1.19271e-015
rhumerus -37.646 -4.9846 -82.6865
rradius 33.5902
rwrist -2.64186
rhand -14.5956 -11.7906
rfingers 7.12502
rthumb 11.5547 -41.4521
lclavicle -2.15433e-014 1.19271e-015
lhumerus -48.5267 -7.664 91.9484
lradius 36.2304
lwrist 46.5428
lhand -22.0096 -10.762
lfingers 7.12502
lthumb 4.39954 19.1724
rfemur -19.6739 -13.0589 26.1299
rtibia 20.5497
rfoot -18.0802 22.3502
rtoes -6.20966
lfemur -21.3508 4.56497 -16.9466
ltibia 23.7514
lfoot -17.1265 -4.21264
ltoes -16.0212
374
root -5.75585 16.1642 35.0954 151.591 -83.5614 -137.914
lowerback -8.59003 1.98851 2.67673
upperback -7.8396 2.15324 0.301162
thorax -3.24337 0.817234 -1.0558
lowerneck 15.9801 -7.59516 -30.8485
upperneck -8.01264 -16.9774 44.7835
head 2.8191 -11.3567 24.4704
rclavicle 4.72114e-015 0
rhumerus -37.5344 -5.03423 -82.8102
rradius 33.5413
rwrist -2.59365
rhand -14.6227 -11.8062
rfingers 7.12502
rthumb 11.5287 -41.4692
lclavicle 4.72114e-015 0
lhumerus -48.4902 -7.80044 92.3168
lradius 36.4214
lwrist 46.6342
lhand -21.9401 -10.7305
lfingers 7.12502
lthumb 4.4666 19.2024
rfemur -19.6992 -13.0861 26.148
rtibia 20.5713
rfoot -18.0749 22.5073
rtoes -6.03443
lfemur -21.3155 4.7378 -16.9536
ltibia 23.7109
lfoot -17.1356 -4.30352
ltoes -15.9346
